<mxfile host="app.diagrams.net" modified="2024-03-19T08:50:31.547Z" agent="Mozilla/5.0 (Macintosh; Intel Mac OS X 10_15_7) AppleWebKit/605.1.15 (KHTML, like Gecko) Version/17.3.1 Safari/605.1.15" etag="9MVF85AQyRrnjPfnDYLr" version="24.0.5" type="github">
  <diagram name="Page-1" id="WC_V2FlZmyl9ZmmDLXuh">
    <mxGraphModel dx="795" dy="539" grid="1" gridSize="10" guides="1" tooltips="1" connect="1" arrows="1" fold="1" page="1" pageScale="1" pageWidth="827" pageHeight="1169" math="0" shadow="0">
      <root>
        <mxCell id="0" />
        <mxCell id="1" parent="0" />
        <mxCell id="_TSNGfj_vLHiy5aj7oB9-1" value="Web Browser" style="rounded=0;whiteSpace=wrap;html=1;" vertex="1" parent="1">
          <mxGeometry x="320" y="200" width="120" height="60" as="geometry" />
        </mxCell>
        <mxCell id="_TSNGfj_vLHiy5aj7oB9-2" value="Outlook" style="rounded=0;whiteSpace=wrap;html=1;" vertex="1" parent="1">
          <mxGeometry x="600" y="200" width="120" height="60" as="geometry" />
        </mxCell>
        <mxCell id="_TSNGfj_vLHiy5aj7oB9-3" value="Excel" style="rounded=0;whiteSpace=wrap;html=1;" vertex="1" parent="1">
          <mxGeometry x="320" y="524.5" width="120" height="60" as="geometry" />
        </mxCell>
        <mxCell id="_TSNGfj_vLHiy5aj7oB9-4" value="Outlook" style="rounded=0;whiteSpace=wrap;html=1;" vertex="1" parent="1">
          <mxGeometry x="600" y="524.5" width="120" height="60" as="geometry" />
        </mxCell>
        <mxCell id="_TSNGfj_vLHiy5aj7oB9-13" style="edgeStyle=orthogonalEdgeStyle;rounded=0;orthogonalLoop=1;jettySize=auto;html=1;entryX=0.5;entryY=1;entryDx=0;entryDy=0;" edge="1" parent="1" source="_TSNGfj_vLHiy5aj7oB9-5" target="_TSNGfj_vLHiy5aj7oB9-6">
          <mxGeometry relative="1" as="geometry" />
        </mxCell>
        <mxCell id="_TSNGfj_vLHiy5aj7oB9-5" value="Robot" style="rounded=0;whiteSpace=wrap;html=1;" vertex="1" parent="1">
          <mxGeometry x="320" y="360" width="400" height="60" as="geometry" />
        </mxCell>
        <mxCell id="_TSNGfj_vLHiy5aj7oB9-6" value="Orchestrator" style="ellipse;whiteSpace=wrap;html=1;aspect=fixed;" vertex="1" parent="1">
          <mxGeometry x="110" y="260" width="80" height="80" as="geometry" />
        </mxCell>
        <mxCell id="_TSNGfj_vLHiy5aj7oB9-9" value="User&#39;s data preference" style="endArrow=classic;startArrow=classic;html=1;rounded=0;" edge="1" parent="1" target="_TSNGfj_vLHiy5aj7oB9-1">
          <mxGeometry x="0.2" width="50" height="50" relative="1" as="geometry">
            <mxPoint x="380" y="360" as="sourcePoint" />
            <mxPoint x="380" y="290" as="targetPoint" />
            <mxPoint as="offset" />
          </mxGeometry>
        </mxCell>
        <mxCell id="_TSNGfj_vLHiy5aj7oB9-10" value="Hotel Data" style="endArrow=classic;startArrow=classic;html=1;rounded=0;" edge="1" parent="1">
          <mxGeometry width="50" height="50" relative="1" as="geometry">
            <mxPoint x="379.58" y="520" as="sourcePoint" />
            <mxPoint x="379.58" y="420" as="targetPoint" />
          </mxGeometry>
        </mxCell>
        <mxCell id="_TSNGfj_vLHiy5aj7oB9-11" value="Notifications" style="endArrow=classic;startArrow=classic;html=1;rounded=0;" edge="1" parent="1">
          <mxGeometry width="50" height="50" relative="1" as="geometry">
            <mxPoint x="659.5799999999999" y="524.5" as="sourcePoint" />
            <mxPoint x="659.5799999999999" y="424.5" as="targetPoint" />
          </mxGeometry>
        </mxCell>
        <mxCell id="_TSNGfj_vLHiy5aj7oB9-12" value="Hotel Data" style="endArrow=classic;startArrow=classic;html=1;rounded=0;" edge="1" parent="1">
          <mxGeometry width="50" height="50" relative="1" as="geometry">
            <mxPoint x="659.58" y="360" as="sourcePoint" />
            <mxPoint x="659.58" y="260" as="targetPoint" />
          </mxGeometry>
        </mxCell>
        <mxCell id="_TSNGfj_vLHiy5aj7oB9-14" value="UIPath web browser activities" style="text;html=1;align=center;verticalAlign=middle;whiteSpace=wrap;rounded=0;fontSize=8;" vertex="1" parent="1">
          <mxGeometry x="300" y="320" width="80" height="30" as="geometry" />
        </mxCell>
      </root>
    </mxGraphModel>
  </diagram>
</mxfile>
